<svg xmlns="http://www.w3.org/2000/svg" version="1.1" xmlns:xlink="http://www.w3.org/1999/xlink" xmlns:svgjs="http://svgjs.dev/svgjs" width="1440" height="560" preserveAspectRatio="none" viewBox="0 0 1440 560"><g mask="url(&quot;#SvgjsMask1002&quot;)" fill="none"><rect width="1440" height="560" x="0" y="0" fill="rgba(58, 58, 58, 1)"></rect><path d="M106.91 397.14L125.45 397.14L125.45 415.68L106.91 415.68z" stroke="#d3b714"></path><path d="M1115.44 205.31 a19.23 19.23 0 1 0 38.46 0 a19.23 19.23 0 1 0 -38.46 0z" fill="#037b0b"></path><path d="M588.8 243.65 a28.94 28.94 0 1 0 57.88 0 a28.94 28.94 0 1 0 -57.88 0z" fill="#d3b714"></path><path d="M157.35 202.88 a3.16 3.16 0 1 0 6.32 0 a3.16 3.16 0 1 0 -6.32 0z" stroke="#e73635"></path><path d="M990.67 224.22L1029.68 224.22L1029.68 263.23L990.67 263.23z" fill="#d3b714"></path><path d="M44.96 443.74L68.63 443.74L68.63 486.26L44.96 486.26z" stroke="#d3b714"></path><path d="M1119.55 423.71L1166.3 423.71L1166.3 465.91L1119.55 465.91z" fill="#e73635"></path><path d="M394.16 4.6L428.71 4.6L428.71 44.11L394.16 44.11z" fill="#037b0b"></path><path d="M984.86 157.17L1031.41 157.17L1031.41 203.72L984.86 203.72z" fill="#d3b714"></path><path d="M104.11 234.43L116.44 234.43L116.44 243.57L104.11 243.57z" stroke="#037b0b"></path><path d="M969.53 514.55 a42.67 42.67 0 1 0 85.34 0 a42.67 42.67 0 1 0 -85.34 0z" stroke="#d3b714"></path><path d="M1237.07 21.11 a40.09 40.09 0 1 0 80.18 0 a40.09 40.09 0 1 0 -80.18 0z" stroke="#d3b714"></path><path d="M1085.01 328.8L1111.25 328.8L1111.25 330.11L1085.01 330.11z" fill="#037b0b"></path><path d="M572.16 260.61 a6.97 6.97 0 1 0 13.94 0 a6.97 6.97 0 1 0 -13.94 0z" fill="#e73635"></path><path d="M761.42 24.57a6.63 6.63 0 1 0-7.23-11.11z" fill="#d3b714"></path><path d="M785.53 304.44L829.54 304.44L829.54 341.46L785.53 341.46z" fill="#037b0b"></path><path d="M768.03 383.43 a10.94 10.94 0 1 0 21.88 0 a10.94 10.94 0 1 0 -21.88 0z" fill="#037b0b"></path><path d="M102.98 221.35L127.66 221.35L127.66 246.03L102.98 246.03z" stroke="#037b0b"></path><path d="M358.07 154.8a31.63 31.63 0 1 0 50.38-38.26z" fill="#037b0b"></path><path d="M1012.22 20.82a21.43 21.43 0 1 0-16.72 39.47z" stroke="#d3b714"></path><path d="M1153.79 222.95L1161.42 222.95L1161.42 230.58L1153.79 230.58z" stroke="#e73635"></path><path d="M250.6 241.71a28.57 28.57 0 1 0-55.4-13.97z" stroke="#d3b714"></path><path d="M1458.94 147.83a37.45 37.45 0 1 0-53.6-52.32z" fill="#037b0b"></path><path d="M149.03 294.6L173.96 294.6L173.96 319.53L149.03 319.53z" stroke="#d3b714"></path><path d="M1138.66 287.79L1174.81 287.79L1174.81 323.94L1138.66 323.94z" fill="#d3b714"></path><path d="M761.55 43.1L785.8 43.1L785.8 67.35L761.55 67.35z" fill="#d3b714"></path><path d="M340.18 147.53 a26.95 26.95 0 1 0 53.9 0 a26.95 26.95 0 1 0 -53.9 0z" fill="#e73635"></path><path d="M660.61 200.72L675.23 200.72L675.23 210.41L660.61 210.41z" fill="#e73635"></path><path d="M915.16 237.28a13.97 13.97 0 1 0 26 10.24z" fill="#d3b714"></path><path d="M77.35 154.62 a48 48 0 1 0 96 0 a48 48 0 1 0 -96 0z" fill="#037b0b"></path><path d="M669.8 72.34a29.99 29.99 0 1 0 9.21-59.26z" fill="#037b0b"></path><path d="M589.9 12.42L643.9 12.42L643.9 66.42L589.9 66.42z" stroke="#e73635"></path><path d="M906.26-3.58a44.7 44.7 0 1 0 14.52 88.22z" fill="#e73635"></path></g><defs><mask id="SvgjsMask1002"><rect width="1440" height="560" fill="#ffffff"></rect></mask></defs></svg>