<svg xmlns="http://www.w3.org/2000/svg" version="1.1" xmlns:xlink="http://www.w3.org/1999/xlink" xmlns:svgjs="http://svgjs.dev/svgjs" width="1440" height="250" preserveAspectRatio="none" viewBox="0 0 1440 250"><g mask="url(&quot;#SvgjsMask1006&quot;)" fill="none"><rect width="1440" height="250" x="0" y="0" fill="rgba(178, 192, 206, 0.57)"></rect><path d="M23 250L273 0L394.5 0L144.5 250z" fill="url(&quot;#SvgjsLinearGradient1007&quot;)"></path><path d="M259.6 250L509.6 0L766.1 0L516.1 250z" fill="url(&quot;#SvgjsLinearGradient1007&quot;)"></path><path d="M477.20000000000005 250L727.2 0L1042.2 0L792.2 250z" fill="url(&quot;#SvgjsLinearGradient1007&quot;)"></path><path d="M720.8000000000001 250L970.8000000000001 0L1078.8000000000002 0L828.8000000000001 250z" fill="url(&quot;#SvgjsLinearGradient1007&quot;)"></path><path d="M1407 250L1157 0L957.5 0L1207.5 250z" fill="url(&quot;#SvgjsLinearGradient1008&quot;)"></path><path d="M1165.4 250L915.4000000000001 0L657.4000000000001 0L907.4000000000001 250z" fill="url(&quot;#SvgjsLinearGradient1008&quot;)"></path><path d="M937.8 250L687.8 0L450.79999999999995 0L700.8 250z" fill="url(&quot;#SvgjsLinearGradient1008&quot;)"></path><path d="M691.1999999999999 250L441.19999999999993 0L121.69999999999993 0L371.69999999999993 250z" fill="url(&quot;#SvgjsLinearGradient1008&quot;)"></path><path d="M1305.394200399214 250L1440 115.39420039921396L1440 250z" fill="url(&quot;#SvgjsLinearGradient1007&quot;)"></path><path d="M0 250L134.60579960078604 250L 0 115.39420039921396z" fill="url(&quot;#SvgjsLinearGradient1008&quot;)"></path></g><defs><mask id="SvgjsMask1006"><rect width="1440" height="250" fill="#ffffff"></rect></mask><linearGradient x1="0%" y1="100%" x2="100%" y2="0%" id="SvgjsLinearGradient1007"><stop stop-color="rgba(15, 70, 185, 0.2)" offset="0"></stop><stop stop-opacity="0" stop-color="rgba(15, 70, 185, 0.2)" offset="0.66"></stop></linearGradient><linearGradient x1="100%" y1="100%" x2="0%" y2="0%" id="SvgjsLinearGradient1008"><stop stop-color="rgba(15, 70, 185, 0.2)" offset="0"></stop><stop stop-opacity="0" stop-color="rgba(15, 70, 185, 0.2)" offset="0.66"></stop></linearGradient></defs></svg>