<svg xmlns="http://www.w3.org/2000/svg" version="1.1" xmlns:xlink="http://www.w3.org/1999/xlink" xmlns:svgjs="http://svgjs.dev/svgjs" width="1440" height="560" preserveAspectRatio="none" viewBox="0 0 1440 560"><g mask="url(&quot;#SvgjsMask1054&quot;)" fill="none"><rect width="1440" height="560" x="0" y="0" fill="rgba(225, 225, 225, 1)"></rect><path d="M0,489.765C132.292,502.669,257.545,644.343,378.06,588.273C494.688,534.012,504.728,368.479,531.236,242.607C553.484,136.964,533.696,32.334,517.618,-74.422C501.654,-180.427,491.331,-286.419,437.594,-379.177C375.807,-485.829,303.268,-597.114,188.608,-642.34C70.778,-688.817,-62.377,-661.955,-183.24,-624.059C-302.544,-586.652,-423.387,-531.276,-494.222,-428.246C-562.415,-329.061,-548.377,-200.156,-557.215,-80.115C-565.43,31.461,-583.196,143.653,-544.045,248.457C-503.239,357.692,-440.051,471.591,-333.458,518.87C-229.357,565.044,-113.344,478.709,0,489.765" fill="#d6d6d6"></path><path d="M1440 1045.246C1531.912 1034.31 1617.427 1006.53 1699.649 964.0219999999999 1789.359 917.642 1907.065 883.613 1938.3609999999999 787.594 1969.966 690.627 1875.871 599.769 1850.574 500.968 1828.799 415.922 1860.884 311.321 1800.1779999999999 247.904 1739.496 184.512 1634.113 210.37400000000002 1549.642 186.59500000000003 1466.442 163.17399999999998 1390.987 86.32600000000002 1307.649 109.25400000000002 1224.33 132.17700000000002 1204.522 242.74200000000002 1139.341 299.478 1058.702 369.669 917.867 379.06399999999996 881.981 479.769 846.837 578.39 926.003 679.64 970.018 774.634 1013.798 869.121 1047.1100000000001 978.96 1137.356 1030.923 1226.688 1082.3600000000001 1337.64 1057.425 1440 1045.246" fill="#ececec"></path></g><defs><mask id="SvgjsMask1054"><rect width="1440" height="560" fill="#ffffff"></rect></mask></defs></svg>