<svg xmlns="http://www.w3.org/2000/svg" version="1.1" xmlns:xlink="http://www.w3.org/1999/xlink" xmlns:svgjs="http://svgjs.dev/svgjs" width="1440" height="560" preserveAspectRatio="none" viewBox="0 0 1440 560"><g mask="url(&quot;#SvgjsMask1003&quot;)" fill="none"><rect width="1440" height="560" x="0" y="0" fill="rgba(250, 247, 247, 1)"></rect><path d="M623.01 493.17L623.01 495.04L633.65 495.04L633.65 493.17zM630.35 494.11 a3.3 3.3 0 1 0 6.6 0 a3.3 3.3 0 1 0 -6.6 0zM620.66 506.86L619.94 508.58L629.48 512.53L630.19 510.81zM626.53 511.67 a3.3 3.3 0 1 0 6.6 0 a3.3 3.3 0 1 0 -6.6 0zM613.24 518.61L611.93 519.93L622.58 530.58L623.89 529.26zM619.93 529.92 a3.3 3.3 0 1 0 6.6 0 a3.3 3.3 0 1 0 -6.6 0zM601.9 526.63L600.18 527.34L606.04 541.48L607.76 540.77zM603.6 541.13 a3.3 3.3 0 1 0 6.6 0 a3.3 3.3 0 1 0 -6.6 0zM588.35 529.69L586.49 529.69L586.49 543.24L588.35 543.24zM584.12 543.24 a3.3 3.3 0 1 0 6.6 0 a3.3 3.3 0 1 0 -6.6 0zM574.67 527.34L572.94 526.63L570.19 533.29L571.91 534zM567.75 533.64 a3.3 3.3 0 1 0 6.6 0 a3.3 3.3 0 1 0 -6.6 0zM562.92 519.93L561.6 518.61L558.14 522.07L559.45 523.39zM555.5 522.73 a3.3 3.3 0 1 0 6.6 0 a3.3 3.3 0 1 0 -6.6 0zM554.9 508.58L554.19 506.86L541.61 512.08L542.32 513.8zM538.66 512.94 a3.3 3.3 0 1 0 6.6 0 a3.3 3.3 0 1 0 -6.6 0zM551.84 495.04L551.84 493.17L542.2 493.17L542.2 495.04zM538.9 494.11 a3.3 3.3 0 1 0 6.6 0 a3.3 3.3 0 1 0 -6.6 0zM554.19 481.35L554.9 479.63L544.42 475.28L543.7 477.01zM540.76 476.15 a3.3 3.3 0 1 0 6.6 0 a3.3 3.3 0 1 0 -6.6 0zM561.6 469.6L562.92 468.29L554.51 459.88L553.19 461.2zM550.55 460.54 a3.3 3.3 0 1 0 6.6 0 a3.3 3.3 0 1 0 -6.6 0zM572.94 461.59L574.67 460.87L569.93 449.44L568.21 450.15zM565.77 449.79 a3.3 3.3 0 1 0 6.6 0 a3.3 3.3 0 1 0 -6.6 0zM586.49 458.52L588.35 458.52L588.35 442.01L586.49 442.01zM584.12 442.01 a3.3 3.3 0 1 0 6.6 0 a3.3 3.3 0 1 0 -6.6 0zM600.18 460.87L601.9 461.59L608.18 446.43L606.46 445.71zM604.02 446.07 a3.3 3.3 0 1 0 6.6 0 a3.3 3.3 0 1 0 -6.6 0zM611.93 468.29L613.24 469.6L623.86 458.98L622.55 457.66zM619.91 458.32 a3.3 3.3 0 1 0 6.6 0 a3.3 3.3 0 1 0 -6.6 0zM619.94 479.63L620.66 481.35L630.14 477.42L629.43 475.7zM626.49 476.56 a3.3 3.3 0 1 0 6.6 0 a3.3 3.3 0 1 0 -6.6 0zM551.82 494.11 a35.6 35.6 0 1 0 71.2 0 a35.6 35.6 0 1 0 -71.2 0z" fill="rgba(205, 38, 38, 1)"></path><path d="M579.29 528.76 A34.5968 34.5968 0 0 1 561.42 469.79M561.42 469.79 A71.1936 71.1936 0 0 0 579.29 528.76" fill="#a41e1e" fill-rule="nonzero"></path><path d="M600.4 502.95 a7.12 7.12 0 1 0 14.24 0 a7.12 7.12 0 1 0 -14.24 0zM566.27 513.15 a7.12 7.12 0 1 0 14.24 0 a7.12 7.12 0 1 0 -14.24 0zM576.39 475.65 a7.12 7.12 0 1 0 14.24 0 a7.12 7.12 0 1 0 -14.24 0zM584.36 502.78 a2.85 2.85 0 1 0 5.7 0 a2.85 2.85 0 1 0 -5.7 0zM585.15 522.55 a4.63 4.63 0 1 0 9.26 0 a4.63 4.63 0 1 0 -9.26 0zM607.12 476.53 a4.98 4.98 0 1 0 9.96 0 a4.98 4.98 0 1 0 -9.96 0zM565.44 497.68 a2.14 2.14 0 1 0 4.28 0 a2.14 2.14 0 1 0 -4.28 0zM556.63 483.62 a5.7 5.7 0 1 0 11.4 0 a5.7 5.7 0 1 0 -11.4 0zM594.84 464.87 a3.92 3.92 0 1 0 7.84 0 a3.92 3.92 0 1 0 -7.84 0zM564.38 469.37 a1.78 1.78 0 1 0 3.56 0 a1.78 1.78 0 1 0 -3.56 0z" fill="#a41e1e" fill-rule="nonzero"></path><path d="M1166.03 77.73L1166.03 80.06L1176.78 80.06L1176.78 77.73zM1172.65 78.89 a4.13 4.13 0 1 0 8.26 0 a4.13 4.13 0 1 0 -8.26 0zM1163.09 94.84L1162.2 96.99L1179.96 104.35L1180.86 102.2zM1176.28 103.27 a4.13 4.13 0 1 0 8.26 0 a4.13 4.13 0 1 0 -8.26 0zM1153.82 109.52L1152.18 111.17L1165.36 124.35L1167.01 122.7zM1162.05 123.53 a4.13 4.13 0 1 0 8.26 0 a4.13 4.13 0 1 0 -8.26 0zM1139.65 119.54L1137.49 120.43L1139.97 126.42L1142.13 125.53zM1136.92 125.98 a4.13 4.13 0 1 0 8.26 0 a4.13 4.13 0 1 0 -8.26 0zM1122.71 123.37L1120.38 123.37L1120.38 134.38L1122.71 134.38zM1117.42 134.38 a4.13 4.13 0 1 0 8.26 0 a4.13 4.13 0 1 0 -8.26 0zM1105.6 120.43L1103.45 119.54L1101.03 125.39L1103.18 126.28zM1097.97 125.84 a4.13 4.13 0 1 0 8.26 0 a4.13 4.13 0 1 0 -8.26 0zM1090.92 111.17L1089.27 109.52L1083.54 115.26L1085.18 116.9zM1080.23 116.08 a4.13 4.13 0 1 0 8.26 0 a4.13 4.13 0 1 0 -8.26 0zM1080.9 96.99L1080.01 94.84L1074.55 97.1L1075.44 99.25zM1070.86 98.18 a4.13 4.13 0 1 0 8.26 0 a4.13 4.13 0 1 0 -8.26 0zM1077.07 80.06L1077.07 77.73L1061.2 77.73L1061.2 80.06zM1057.07 78.89 a4.13 4.13 0 1 0 8.26 0 a4.13 4.13 0 1 0 -8.26 0zM1080.01 62.95L1080.9 60.8L1074.4 58.11L1073.51 60.26zM1069.83 59.18 a4.13 4.13 0 1 0 8.26 0 a4.13 4.13 0 1 0 -8.26 0zM1089.27 48.26L1090.92 46.62L1080.18 35.88L1078.53 37.52zM1075.22 36.7 a4.13 4.13 0 1 0 8.26 0 a4.13 4.13 0 1 0 -8.26 0zM1103.45 38.24L1105.6 37.35L1100.27 24.47L1098.12 25.37zM1095.06 24.92 a4.13 4.13 0 1 0 8.26 0 a4.13 4.13 0 1 0 -8.26 0zM1120.38 34.41L1122.71 34.41L1122.71 24.93L1120.38 24.93zM1117.42 24.93 a4.13 4.13 0 1 0 8.26 0 a4.13 4.13 0 1 0 -8.26 0zM1137.49 37.35L1139.65 38.24L1142.08 32.36L1139.93 31.47zM1136.88 31.91 a4.13 4.13 0 1 0 8.26 0 a4.13 4.13 0 1 0 -8.26 0zM1152.18 46.62L1153.82 48.26L1161.66 40.43L1160.01 38.78zM1156.71 39.61 a4.13 4.13 0 1 0 8.26 0 a4.13 4.13 0 1 0 -8.26 0zM1162.2 60.8L1163.09 62.95L1178.26 56.66L1177.37 54.51zM1173.68 55.59 a4.13 4.13 0 1 0 8.26 0 a4.13 4.13 0 1 0 -8.26 0zM1077.05 78.89 a44.5 44.5 0 1 0 89 0 a44.5 44.5 0 1 0 -89 0z" fill="rgba(205, 38, 38, 1)"></path><path d="M1165.85 74.69 A43.496 43.496 0 0 1 1103.12 119.4M1103.12 119.4 A88.992 88.992 0 0 0 1165.85 74.69" fill="#a41e1e" fill-rule="nonzero"></path><path d="M1108.76 114.98 a8.01 8.01 0 1 0 16.02 0 a8.01 8.01 0 1 0 -16.02 0zM1087.14 68.32 a8.9 8.9 0 1 0 17.8 0 a8.9 8.9 0 1 0 -17.8 0zM1149.9 108.67 a1.78 1.78 0 1 0 3.56 0 a1.78 1.78 0 1 0 -3.56 0zM1112.97 60.53 a7.56 7.56 0 1 0 15.12 0 a7.56 7.56 0 1 0 -15.12 0zM1153.96 73.44 a5.78 5.78 0 1 0 11.56 0 a5.78 5.78 0 1 0 -11.56 0zM1125.26 79.68 a4.89 4.89 0 1 0 9.78 0 a4.89 4.89 0 1 0 -9.78 0zM1092.32 89.27 a3.11 3.11 0 1 0 6.22 0 a3.11 3.11 0 1 0 -6.22 0zM1150.47 56.3 a3.11 3.11 0 1 0 6.22 0 a3.11 3.11 0 1 0 -6.22 0zM1096.3 114.28 a1.78 1.78 0 1 0 3.56 0 a1.78 1.78 0 1 0 -3.56 0zM1107.35 84.31 a4 4 0 1 0 8 0 a4 4 0 1 0 -8 0z" fill="#a41e1e" fill-rule="nonzero"></path><path d="M707.17 264.59L707.17 267.86L719.56 267.86L719.56 264.59zM713.78 266.22 a5.78 5.78 0 1 0 11.56 0 a5.78 5.78 0 1 0 -11.56 0zM703.05 288.55L701.81 291.56L726.62 301.84L727.87 298.83zM721.47 300.33 a5.78 5.78 0 1 0 11.56 0 a5.78 5.78 0 1 0 -11.56 0zM690.08 309.11L687.78 311.41L693.86 317.49L696.17 315.19zM689.23 316.34 a5.78 5.78 0 1 0 11.56 0 a5.78 5.78 0 1 0 -11.56 0zM670.24 323.13L667.22 324.38L673.5 339.54L676.52 338.29zM669.23 338.92 a5.78 5.78 0 1 0 11.56 0 a5.78 5.78 0 1 0 -11.56 0zM646.53 328.5L643.27 328.5L643.27 355.01L646.53 355.01zM639.12 355.01 a5.78 5.78 0 1 0 11.56 0 a5.78 5.78 0 1 0 -11.56 0zM622.57 324.38L619.56 323.13L611.92 341.57L614.94 342.82zM607.65 342.2 a5.78 5.78 0 1 0 11.56 0 a5.78 5.78 0 1 0 -11.56 0zM602.02 311.41L599.71 309.11L582.46 326.36L584.76 328.67zM577.83 327.51 a5.78 5.78 0 1 0 11.56 0 a5.78 5.78 0 1 0 -11.56 0zM587.99 291.56L586.74 288.55L562.23 298.7L563.48 301.71zM557.07 300.21 a5.78 5.78 0 1 0 11.56 0 a5.78 5.78 0 1 0 -11.56 0zM582.62 267.86L582.62 264.59L559.43 264.59L559.43 267.86zM553.65 266.22 a5.78 5.78 0 1 0 11.56 0 a5.78 5.78 0 1 0 -11.56 0zM586.74 243.9L587.99 240.89L569.75 233.33L568.5 236.35zM563.35 234.84 a5.78 5.78 0 1 0 11.56 0 a5.78 5.78 0 1 0 -11.56 0zM599.71 223.34L602.02 221.04L587.6 206.62L585.29 208.93zM580.67 207.77 a5.78 5.78 0 1 0 11.56 0 a5.78 5.78 0 1 0 -11.56 0zM619.56 209.32L622.57 208.07L612.9 184.7L609.88 185.95zM605.61 185.33 a5.78 5.78 0 1 0 11.56 0 a5.78 5.78 0 1 0 -11.56 0zM643.27 203.95L646.53 203.95L646.53 193.92L643.27 193.92zM639.12 193.92 a5.78 5.78 0 1 0 11.56 0 a5.78 5.78 0 1 0 -11.56 0zM667.22 208.07L670.24 209.32L678.69 188.91L675.68 187.66zM671.4 188.28 a5.78 5.78 0 1 0 11.56 0 a5.78 5.78 0 1 0 -11.56 0zM687.78 221.04L690.08 223.34L697.04 216.39L694.74 214.08zM690.11 215.23 a5.78 5.78 0 1 0 11.56 0 a5.78 5.78 0 1 0 -11.56 0zM701.81 240.89L703.05 243.9L724.54 235L723.3 231.99zM718.14 233.49 a5.78 5.78 0 1 0 11.56 0 a5.78 5.78 0 1 0 -11.56 0zM582.61 266.22 a62.29 62.29 0 1 0 124.58 0 a62.29 62.29 0 1 0 -124.58 0z" fill="rgba(205, 38, 38, 1)"></path><path d="M679.94 214.72 A61.294399999999996 61.294399999999996 0 0 1 672.1 322.27M672.1 322.27 A124.58879999999999 124.58879999999999 0 0 0 679.94 214.72" fill="#a41e1e" fill-rule="nonzero"></path><path d="M607.28 237.16 a12.46 12.46 0 1 0 24.92 0 a12.46 12.46 0 1 0 -24.92 0zM631.27 274.75 a12.46 12.46 0 1 0 24.92 0 a12.46 12.46 0 1 0 -24.92 0zM689.96 293.9 a4.98 4.98 0 1 0 9.96 0 a4.98 4.98 0 1 0 -9.96 0zM646.23 214.82 a9.34 9.34 0 1 0 18.68 0 a9.34 9.34 0 1 0 -18.68 0zM598.84 299.72 a12.46 12.46 0 1 0 24.92 0 a12.46 12.46 0 1 0 -24.92 0zM678.16 270.52 a7.48 7.48 0 1 0 14.96 0 a7.48 7.48 0 1 0 -14.96 0zM651.05 246.1 a6.23 6.23 0 1 0 12.46 0 a6.23 6.23 0 1 0 -12.46 0zM677.47 221.61 a4.36 4.36 0 1 0 8.72 0 a4.36 4.36 0 1 0 -8.72 0zM647.63 307.05 a9.97 9.97 0 1 0 19.94 0 a9.97 9.97 0 1 0 -19.94 0zM690.04 246.89 a4.98 4.98 0 1 0 9.96 0 a4.98 4.98 0 1 0 -9.96 0z" fill="#a41e1e" fill-rule="nonzero"></path><path d="M1099.07 376.78L1099.07 380.5L1118.82 380.5L1118.82 376.78zM1112.22 378.64 a6.6 6.6 0 1 0 13.2 0 a6.6 6.6 0 1 0 -13.2 0zM1094.37 404.15L1092.94 407.6L1115.89 417.1L1117.32 413.66zM1110.01 415.38 a6.6 6.6 0 1 0 13.2 0 a6.6 6.6 0 1 0 -13.2 0zM1079.55 427.65L1076.91 430.28L1086.82 440.19L1089.45 437.55zM1081.54 438.87 a6.6 6.6 0 1 0 13.2 0 a6.6 6.6 0 1 0 -13.2 0zM1056.86 443.68L1053.42 445.11L1063.34 469.07L1066.79 467.65zM1058.47 468.36 a6.6 6.6 0 1 0 13.2 0 a6.6 6.6 0 1 0 -13.2 0zM1029.77 449.81L1026.04 449.81L1026.04 461.74L1029.77 461.74zM1021.3 461.74 a6.6 6.6 0 1 0 13.2 0 a6.6 6.6 0 1 0 -13.2 0zM1002.39 445.11L998.95 443.68L995.34 452.38L998.79 453.81zM990.46 453.1 a6.6 6.6 0 1 0 13.2 0 a6.6 6.6 0 1 0 -13.2 0zM978.9 430.28L976.26 427.65L959.66 444.25L962.3 446.89zM954.38 445.57 a6.6 6.6 0 1 0 13.2 0 a6.6 6.6 0 1 0 -13.2 0zM962.87 407.6L961.44 404.15L935.77 414.79L937.2 418.23zM929.89 416.51 a6.6 6.6 0 1 0 13.2 0 a6.6 6.6 0 1 0 -13.2 0zM956.74 380.5L956.74 376.78L935.45 376.78L935.45 380.5zM928.85 378.64 a6.6 6.6 0 1 0 13.2 0 a6.6 6.6 0 1 0 -13.2 0zM961.44 353.13L962.87 349.68L938.61 339.64L937.19 343.08zM931.3 341.36 a6.6 6.6 0 1 0 13.2 0 a6.6 6.6 0 1 0 -13.2 0zM976.26 329.63L978.9 327L968.38 316.48L965.75 319.12zM960.47 317.8 a6.6 6.6 0 1 0 13.2 0 a6.6 6.6 0 1 0 -13.2 0zM998.95 313.6L1002.39 312.18L998.4 302.53L994.95 303.96zM990.07 303.24 a6.6 6.6 0 1 0 13.2 0 a6.6 6.6 0 1 0 -13.2 0zM1026.04 307.47L1029.77 307.47L1029.77 281.53L1026.04 281.53zM1021.3 281.53 a6.6 6.6 0 1 0 13.2 0 a6.6 6.6 0 1 0 -13.2 0zM1053.42 312.18L1056.86 313.6L1066.39 290.61L1062.94 289.18zM1058.06 289.89 a6.6 6.6 0 1 0 13.2 0 a6.6 6.6 0 1 0 -13.2 0zM1076.91 327L1079.55 329.63L1094.69 314.5L1092.05 311.86zM1086.77 313.18 a6.6 6.6 0 1 0 13.2 0 a6.6 6.6 0 1 0 -13.2 0zM1092.94 349.68L1094.37 353.13L1112.09 345.79L1110.66 342.34zM1104.78 344.07 a6.6 6.6 0 1 0 13.2 0 a6.6 6.6 0 1 0 -13.2 0zM956.71 378.64 a71.19 71.19 0 1 0 142.38 0 a71.19 71.19 0 1 0 -142.38 0z" fill="rgba(205, 38, 38, 1)"></path><path d="M958.07 364.8 A70.1936 70.1936 0 0 1 1074.7 324.98M1074.7 324.98 A142.3872 142.3872 0 0 0 958.07 364.8" fill="#a41e1e" fill-rule="nonzero"></path><path d="M993.11 376.62 a14.24 14.24 0 1 0 28.48 0 a14.24 14.24 0 1 0 -28.48 0zM973.1 337.04 a7.83 7.83 0 1 0 15.66 0 a7.83 7.83 0 1 0 -15.66 0zM1066.2 327.43 a4.27 4.27 0 1 0 8.54 0 a4.27 4.27 0 1 0 -8.54 0zM965.65 409.4 a12.81 12.81 0 1 0 25.62 0 a12.81 12.81 0 1 0 -25.62 0zM1011.6 343.19 a5.7 5.7 0 1 0 11.4 0 a5.7 5.7 0 1 0 -11.4 0zM1030.92 398.96 a14.24 14.24 0 1 0 28.48 0 a14.24 14.24 0 1 0 -28.48 0zM1073.89 401.19 a5.7 5.7 0 1 0 11.4 0 a5.7 5.7 0 1 0 -11.4 0zM1031.92 361.16 a2.85 2.85 0 1 0 5.7 0 a2.85 2.85 0 1 0 -5.7 0zM1056.97 435.18 a4.98 4.98 0 1 0 9.96 0 a4.98 4.98 0 1 0 -9.96 0zM1030.24 440.54 a6.41 6.41 0 1 0 12.82 0 a6.41 6.41 0 1 0 -12.82 0z" fill="#a41e1e" fill-rule="nonzero"></path><path d="M338.24 200L338.24 203.73L357.55 203.73L357.55 200zM350.95 201.87 a6.6 6.6 0 1 0 13.2 0 a6.6 6.6 0 1 0 -13.2 0zM333.54 227.38L332.11 230.82L355.22 240.39L356.64 236.95zM349.33 238.67 a6.6 6.6 0 1 0 13.2 0 a6.6 6.6 0 1 0 -13.2 0zM318.71 250.87L316.08 253.51L335.45 272.87L338.08 270.24zM330.16 271.56 a6.6 6.6 0 1 0 13.2 0 a6.6 6.6 0 1 0 -13.2 0zM296.03 266.9L292.59 268.33L301.22 289.18L304.67 287.76zM296.34 288.47 a6.6 6.6 0 1 0 13.2 0 a6.6 6.6 0 1 0 -13.2 0zM268.94 273.03L265.21 273.03L265.21 296.26L268.94 296.26zM260.47 296.26 a6.6 6.6 0 1 0 13.2 0 a6.6 6.6 0 1 0 -13.2 0zM241.56 268.33L238.11 266.9L233.9 277.08L237.35 278.5zM229.02 277.79 a6.6 6.6 0 1 0 13.2 0 a6.6 6.6 0 1 0 -13.2 0zM218.07 253.51L215.43 250.87L194.8 271.5L197.44 274.13zM189.52 272.82 a6.6 6.6 0 1 0 13.2 0 a6.6 6.6 0 1 0 -13.2 0zM202.03 230.82L200.61 227.38L179.11 236.28L180.53 239.73zM173.22 238.01 a6.6 6.6 0 1 0 13.2 0 a6.6 6.6 0 1 0 -13.2 0zM195.9 203.73L195.9 200L168.33 200L168.33 203.73zM161.73 201.87 a6.6 6.6 0 1 0 13.2 0 a6.6 6.6 0 1 0 -13.2 0zM200.61 176.35L202.03 172.91L176.95 162.52L175.52 165.96zM169.64 164.24 a6.6 6.6 0 1 0 13.2 0 a6.6 6.6 0 1 0 -13.2 0zM215.43 152.86L218.07 150.22L195.42 127.58L192.79 130.22zM187.51 128.9 a6.6 6.6 0 1 0 13.2 0 a6.6 6.6 0 1 0 -13.2 0zM238.11 136.83L241.56 135.4L235.31 120.3L231.86 121.73zM226.98 121.02 a6.6 6.6 0 1 0 13.2 0 a6.6 6.6 0 1 0 -13.2 0zM265.21 130.7L268.94 130.7L268.94 110.16L265.21 110.16zM260.47 110.16 a6.6 6.6 0 1 0 13.2 0 a6.6 6.6 0 1 0 -13.2 0zM292.59 135.4L296.03 136.83L302.61 120.94L299.17 119.51zM294.29 120.22 a6.6 6.6 0 1 0 13.2 0 a6.6 6.6 0 1 0 -13.2 0zM316.08 150.22L318.71 152.86L340.03 131.55L337.39 128.91zM332.11 130.23 a6.6 6.6 0 1 0 13.2 0 a6.6 6.6 0 1 0 -13.2 0zM332.11 172.91L333.54 176.35L355.25 167.36L353.82 163.91zM347.93 165.64 a6.6 6.6 0 1 0 13.2 0 a6.6 6.6 0 1 0 -13.2 0zM195.88 201.87 a71.19 71.19 0 1 0 142.38 0 a71.19 71.19 0 1 0 -142.38 0z" fill="rgba(205, 38, 38, 1)"></path><path d="M199.27 223.57 A70.1936 70.1936 0 0 1 282.03 132.26M282.03 132.26 A142.3872 142.3872 0 0 0 199.27 223.57" fill="#a41e1e" fill-rule="nonzero"></path><path d="M289.93 139.2 a2.85 2.85 0 1 0 5.7 0 a2.85 2.85 0 1 0 -5.7 0zM255.92 213.08 a14.24 14.24 0 1 0 28.48 0 a14.24 14.24 0 1 0 -28.48 0zM293.23 190.64 a14.24 14.24 0 1 0 28.48 0 a14.24 14.24 0 1 0 -28.48 0zM224.6 256.82 a2.85 2.85 0 1 0 5.7 0 a2.85 2.85 0 1 0 -5.7 0zM246.35 241.2 a4.98 4.98 0 1 0 9.96 0 a4.98 4.98 0 1 0 -9.96 0zM272.69 256.89 a12.81 12.81 0 1 0 25.62 0 a12.81 12.81 0 1 0 -25.62 0zM206.3 187.94 a14.24 14.24 0 1 0 28.48 0 a14.24 14.24 0 1 0 -28.48 0zM310.56 224.03 a5.7 5.7 0 1 0 11.4 0 a5.7 5.7 0 1 0 -11.4 0zM248.2 176.9 a9.26 9.26 0 1 0 18.52 0 a9.26 9.26 0 1 0 -18.52 0zM249.08 142.82 a9.97 9.97 0 1 0 19.94 0 a9.97 9.97 0 1 0 -19.94 0z" fill="#a41e1e" fill-rule="nonzero"></path><path d="M1407.47 367.24L1407.47 369.1L1412.32 369.1L1412.32 367.24zM1409.02 368.17 a3.3 3.3 0 1 0 6.6 0 a3.3 3.3 0 1 0 -6.6 0zM1405.12 380.92L1404.4 382.65L1415.09 387.07L1415.8 385.35zM1412.15 386.21 a3.3 3.3 0 1 0 6.6 0 a3.3 3.3 0 1 0 -6.6 0zM1397.7 392.67L1396.39 393.99L1408.22 405.82L1409.54 404.51zM1405.58 405.17 a3.3 3.3 0 1 0 6.6 0 a3.3 3.3 0 1 0 -6.6 0zM1386.36 400.69L1384.64 401.4L1388.08 409.71L1389.81 409zM1385.64 409.36 a3.3 3.3 0 1 0 6.6 0 a3.3 3.3 0 1 0 -6.6 0zM1372.81 403.75L1370.95 403.75L1370.95 408.68L1372.81 408.68zM1368.58 408.68 a3.3 3.3 0 1 0 6.6 0 a3.3 3.3 0 1 0 -6.6 0zM1359.13 401.4L1357.4 400.69L1351.82 414.17L1353.54 414.88zM1349.38 414.52 a3.3 3.3 0 1 0 6.6 0 a3.3 3.3 0 1 0 -6.6 0zM1347.38 393.99L1346.06 392.67L1334.21 404.52L1335.53 405.84zM1331.57 405.18 a3.3 3.3 0 1 0 6.6 0 a3.3 3.3 0 1 0 -6.6 0zM1339.36 382.65L1338.65 380.92L1323.69 387.12L1324.41 388.84zM1320.75 387.98 a3.3 3.3 0 1 0 6.6 0 a3.3 3.3 0 1 0 -6.6 0zM1336.3 369.1L1336.3 367.24L1328.13 367.24L1328.13 369.1zM1324.83 368.17 a3.3 3.3 0 1 0 6.6 0 a3.3 3.3 0 1 0 -6.6 0zM1338.65 355.41L1339.36 353.69L1332.28 350.75L1331.56 352.47zM1328.62 351.61 a3.3 3.3 0 1 0 6.6 0 a3.3 3.3 0 1 0 -6.6 0zM1346.06 343.66L1347.38 342.35L1343.38 338.35L1342.07 339.67zM1339.43 339.01 a3.3 3.3 0 1 0 6.6 0 a3.3 3.3 0 1 0 -6.6 0zM1357.4 335.65L1359.13 334.93L1353.76 321.97L1352.04 322.69zM1349.6 322.33 a3.3 3.3 0 1 0 6.6 0 a3.3 3.3 0 1 0 -6.6 0zM1370.95 332.58L1372.81 332.58L1372.81 325.87L1370.95 325.87zM1368.58 325.87 a3.3 3.3 0 1 0 6.6 0 a3.3 3.3 0 1 0 -6.6 0zM1384.64 334.93L1386.36 335.65L1391.89 322.29L1390.17 321.58zM1387.73 321.93 a3.3 3.3 0 1 0 6.6 0 a3.3 3.3 0 1 0 -6.6 0zM1396.39 342.35L1397.7 343.66L1405.72 335.65L1404.4 334.33zM1401.76 334.99 a3.3 3.3 0 1 0 6.6 0 a3.3 3.3 0 1 0 -6.6 0zM1404.4 353.69L1405.12 355.41L1409.54 353.58L1408.83 351.86zM1405.88 352.72 a3.3 3.3 0 1 0 6.6 0 a3.3 3.3 0 1 0 -6.6 0zM1336.28 368.17 a35.6 35.6 0 1 0 71.2 0 a35.6 35.6 0 1 0 -71.2 0z" fill="rgba(205, 38, 38, 1)"></path><path d="M1386.62 400.57 A34.5968 34.5968 0 0 1 1336.45 364.8M1336.45 364.8 A71.1936 71.1936 0 0 0 1386.62 400.57" fill="#a41e1e" fill-rule="nonzero"></path><path d="M1375.84 348.75 a7.12 7.12 0 1 0 14.24 0 a7.12 7.12 0 1 0 -14.24 0zM1362.99 354.25 a3.2 3.2 0 1 0 6.4 0 a3.2 3.2 0 1 0 -6.4 0zM1368.15 373.95 a7.12 7.12 0 1 0 14.24 0 a7.12 7.12 0 1 0 -14.24 0zM1344.46 352.77 a5.7 5.7 0 1 0 11.4 0 a5.7 5.7 0 1 0 -11.4 0zM1341.36 384.74 a4.27 4.27 0 1 0 8.54 0 a4.27 4.27 0 1 0 -8.54 0zM1381.69 390.96 a7.12 7.12 0 1 0 14.24 0 a7.12 7.12 0 1 0 -14.24 0zM1398.5 377.95 a3.56 3.56 0 1 0 7.12 0 a3.56 3.56 0 1 0 -7.12 0zM1369.81 400.59 a2.85 2.85 0 1 0 5.7 0 a2.85 2.85 0 1 0 -5.7 0zM1349.08 370.03 a4.63 4.63 0 1 0 9.26 0 a4.63 4.63 0 1 0 -9.26 0zM1395.88 364.56 a2.85 2.85 0 1 0 5.7 0 a2.85 2.85 0 1 0 -5.7 0z" fill="#a41e1e" fill-rule="nonzero"></path><path d="M314.89 463.61L314.89 465.94L336.34 465.94L336.34 463.61zM332.21 464.78 a4.13 4.13 0 1 0 8.26 0 a4.13 4.13 0 1 0 -8.26 0zM311.95 480.73L311.05 482.88L323.81 488.16L324.71 486.01zM320.13 487.09 a4.13 4.13 0 1 0 8.26 0 a4.13 4.13 0 1 0 -8.26 0zM302.68 495.41L301.03 497.06L307.95 503.97L309.6 502.32zM304.64 503.15 a4.13 4.13 0 1 0 8.26 0 a4.13 4.13 0 1 0 -8.26 0zM288.5 505.43L286.35 506.32L294.54 526.08L296.69 525.19zM291.48 525.64 a4.13 4.13 0 1 0 8.26 0 a4.13 4.13 0 1 0 -8.26 0zM271.57 509.26L269.24 509.26L269.24 522.48L271.57 522.48zM266.28 522.48 a4.13 4.13 0 1 0 8.26 0 a4.13 4.13 0 1 0 -8.26 0zM254.46 506.32L252.31 505.43L249.01 513.39L251.16 514.28zM245.96 513.84 a4.13 4.13 0 1 0 8.26 0 a4.13 4.13 0 1 0 -8.26 0zM239.78 497.06L238.13 495.41L225.79 507.75L227.44 509.39zM222.48 508.57 a4.13 4.13 0 1 0 8.26 0 a4.13 4.13 0 1 0 -8.26 0zM229.76 482.88L228.87 480.73L209.4 488.79L210.29 490.94zM205.71 489.86 a4.13 4.13 0 1 0 8.26 0 a4.13 4.13 0 1 0 -8.26 0zM225.93 465.94L225.93 463.61L205.75 463.61L205.75 465.94zM201.62 464.78 a4.13 4.13 0 1 0 8.26 0 a4.13 4.13 0 1 0 -8.26 0zM228.87 448.83L229.76 446.68L214.45 440.34L213.56 442.49zM209.87 441.42 a4.13 4.13 0 1 0 8.26 0 a4.13 4.13 0 1 0 -8.26 0zM238.13 434.15L239.78 432.5L234.23 426.96L232.59 428.61zM229.28 427.78 a4.13 4.13 0 1 0 8.26 0 a4.13 4.13 0 1 0 -8.26 0zM252.31 424.13L254.46 423.24L246.89 404.96L244.74 405.86zM241.68 405.41 a4.13 4.13 0 1 0 8.26 0 a4.13 4.13 0 1 0 -8.26 0zM269.24 420.3L271.57 420.3L271.57 404.47L269.24 404.47zM266.28 404.47 a4.13 4.13 0 1 0 8.26 0 a4.13 4.13 0 1 0 -8.26 0zM286.35 423.24L288.5 424.13L291.65 416.53L289.5 415.64zM286.45 416.08 a4.13 4.13 0 1 0 8.26 0 a4.13 4.13 0 1 0 -8.26 0zM301.03 432.5L302.68 434.15L311.43 425.4L309.78 423.76zM306.48 424.58 a4.13 4.13 0 1 0 8.26 0 a4.13 4.13 0 1 0 -8.26 0zM311.05 446.68L311.95 448.83L325.88 443.06L324.99 440.91zM321.3 441.99 a4.13 4.13 0 1 0 8.26 0 a4.13 4.13 0 1 0 -8.26 0zM225.91 464.78 a44.5 44.5 0 1 0 89 0 a44.5 44.5 0 1 0 -89 0z" fill="rgba(205, 38, 38, 1)"></path><path d="M247.36 502.84 A43.496 43.496 0 0 1 248.89 425.83M248.89 425.83 A88.992 88.992 0 0 0 247.36 502.84" fill="#a41e1e" fill-rule="nonzero"></path><path d="M257.66 495.09 a8.9 8.9 0 1 0 17.8 0 a8.9 8.9 0 1 0 -17.8 0zM303.37 450.92 a4.45 4.45 0 1 0 8.9 0 a4.45 4.45 0 1 0 -8.9 0zM257.08 465.2 a8.9 8.9 0 1 0 17.8 0 a8.9 8.9 0 1 0 -17.8 0zM258.05 444.79 a3.11 3.11 0 1 0 6.22 0 a3.11 3.11 0 1 0 -6.22 0zM290.21 473.81 a8.9 8.9 0 1 0 17.8 0 a8.9 8.9 0 1 0 -17.8 0zM288.01 428.57 a2.67 2.67 0 1 0 5.34 0 a2.67 2.67 0 1 0 -5.34 0zM246.41 475.31 a2.22 2.22 0 1 0 4.44 0 a2.22 2.22 0 1 0 -4.44 0zM228.42 466.24 a5.78 5.78 0 1 0 11.56 0 a5.78 5.78 0 1 0 -11.56 0zM259.3 430.66 a1.78 1.78 0 1 0 3.56 0 a1.78 1.78 0 1 0 -3.56 0zM283.76 489.49 a1.78 1.78 0 1 0 3.56 0 a1.78 1.78 0 1 0 -3.56 0z" fill="#a41e1e" fill-rule="nonzero"></path><path d="M909.12 67.43L909.12 69.29L917 69.29L917 67.43zM913.7 68.36 a3.3 3.3 0 1 0 6.6 0 a3.3 3.3 0 1 0 -6.6 0zM906.77 81.12L906.05 82.84L916.1 87L916.81 85.28zM913.15 86.14 a3.3 3.3 0 1 0 6.6 0 a3.3 3.3 0 1 0 -6.6 0zM899.36 92.86L898.04 94.18L902.83 98.97L904.14 97.65zM900.18 98.31 a3.3 3.3 0 1 0 6.6 0 a3.3 3.3 0 1 0 -6.6 0zM888.01 100.88L886.29 101.59L892.25 115.98L893.97 115.27zM889.81 115.62 a3.3 3.3 0 1 0 6.6 0 a3.3 3.3 0 1 0 -6.6 0zM874.47 103.95L872.6 103.95L872.6 120.07L874.47 120.07zM870.23 120.07 a3.3 3.3 0 1 0 6.6 0 a3.3 3.3 0 1 0 -6.6 0zM860.78 101.59L859.06 100.88L853.76 113.68L855.48 114.39zM851.32 114.03 a3.3 3.3 0 1 0 6.6 0 a3.3 3.3 0 1 0 -6.6 0zM849.03 94.18L847.71 92.86L841.51 99.07L842.82 100.39zM838.86 99.73 a3.3 3.3 0 1 0 6.6 0 a3.3 3.3 0 1 0 -6.6 0zM841.02 82.84L840.3 81.12L827.17 86.56L827.89 88.28zM824.23 87.42 a3.3 3.3 0 1 0 6.6 0 a3.3 3.3 0 1 0 -6.6 0zM837.95 69.29L837.95 67.43L822.74 67.43L822.74 69.29zM819.44 68.36 a3.3 3.3 0 1 0 6.6 0 a3.3 3.3 0 1 0 -6.6 0zM840.3 55.6L841.02 53.88L833.05 50.58L832.34 52.31zM829.4 51.45 a3.3 3.3 0 1 0 6.6 0 a3.3 3.3 0 1 0 -6.6 0zM847.71 43.86L849.03 42.54L844.68 38.19L843.37 39.51zM840.72 38.85 a3.3 3.3 0 1 0 6.6 0 a3.3 3.3 0 1 0 -6.6 0zM859.06 35.84L860.78 35.13L856.18 24.02L854.46 24.74zM852.02 24.38 a3.3 3.3 0 1 0 6.6 0 a3.3 3.3 0 1 0 -6.6 0zM872.6 32.78L874.47 32.78L874.47 22.08L872.6 22.08zM870.23 22.08 a3.3 3.3 0 1 0 6.6 0 a3.3 3.3 0 1 0 -6.6 0zM886.29 35.13L888.01 35.84L890.69 29.38L888.97 28.66zM886.53 29.02 a3.3 3.3 0 1 0 6.6 0 a3.3 3.3 0 1 0 -6.6 0zM898.04 42.54L899.36 43.86L907.74 35.47L906.42 34.15zM903.78 34.81 a3.3 3.3 0 1 0 6.6 0 a3.3 3.3 0 1 0 -6.6 0zM906.05 53.88L906.77 55.6L917.34 51.23L916.62 49.51zM913.68 50.37 a3.3 3.3 0 1 0 6.6 0 a3.3 3.3 0 1 0 -6.6 0zM837.93 68.36 a35.6 35.6 0 1 0 71.2 0 a35.6 35.6 0 1 0 -71.2 0z" fill="rgba(205, 38, 38, 1)"></path><path d="M840.11 80.62 A34.5968 34.5968 0 0 1 879.56 33.28M879.56 33.28 A71.1936 71.1936 0 0 0 840.11 80.62" fill="#a41e1e" fill-rule="nonzero"></path><path d="M866.26 36.77 a3.56 3.56 0 1 0 7.12 0 a3.56 3.56 0 1 0 -7.12 0zM870.35 59.93 a7.12 7.12 0 1 0 14.24 0 a7.12 7.12 0 1 0 -14.24 0zM864.53 96.6 a7.12 7.12 0 1 0 14.24 0 a7.12 7.12 0 1 0 -14.24 0zM842.64 83.85 a5.7 5.7 0 1 0 11.4 0 a5.7 5.7 0 1 0 -11.4 0zM858.78 61.8 a2.14 2.14 0 1 0 4.28 0 a2.14 2.14 0 1 0 -4.28 0zM887.26 82.85 a7.12 7.12 0 1 0 14.24 0 a7.12 7.12 0 1 0 -14.24 0zM900.09 64.69 a4.27 4.27 0 1 0 8.54 0 a4.27 4.27 0 1 0 -8.54 0zM862.02 79.77 a3.56 3.56 0 1 0 7.12 0 a3.56 3.56 0 1 0 -7.12 0zM894.74 48.56 a3.56 3.56 0 1 0 7.12 0 a3.56 3.56 0 1 0 -7.12 0zM881.44 44.8 a1.78 1.78 0 1 0 3.56 0 a1.78 1.78 0 1 0 -3.56 0z" fill="#a41e1e" fill-rule="nonzero"></path><path d="M505.83 58.44L505.83 60.3L510.66 60.3L510.66 58.44zM507.36 59.37 a3.3 3.3 0 1 0 6.6 0 a3.3 3.3 0 1 0 -6.6 0zM503.48 72.13L502.77 73.85L518.53 80.38L519.24 78.66zM515.59 79.52 a3.3 3.3 0 1 0 6.6 0 a3.3 3.3 0 1 0 -6.6 0zM496.07 83.88L494.75 85.19L503.04 93.48L504.36 92.16zM500.4 92.82 a3.3 3.3 0 1 0 6.6 0 a3.3 3.3 0 1 0 -6.6 0zM484.73 91.89L483 92.6L487.81 104.21L489.53 103.5zM485.37 103.85 a3.3 3.3 0 1 0 6.6 0 a3.3 3.3 0 1 0 -6.6 0zM471.18 94.96L469.32 94.96L469.32 107.27L471.18 107.27zM466.95 107.27 a3.3 3.3 0 1 0 6.6 0 a3.3 3.3 0 1 0 -6.6 0zM457.49 92.6L455.77 91.89L449.23 107.69L450.95 108.4zM446.79 108.05 a3.3 3.3 0 1 0 6.6 0 a3.3 3.3 0 1 0 -6.6 0zM445.74 85.19L444.43 83.88L437.06 91.24L438.38 92.56zM434.42 91.9 a3.3 3.3 0 1 0 6.6 0 a3.3 3.3 0 1 0 -6.6 0zM437.73 73.85L437.02 72.13L430.86 74.68L431.58 76.4zM427.92 75.54 a3.3 3.3 0 1 0 6.6 0 a3.3 3.3 0 1 0 -6.6 0zM434.66 60.3L434.66 58.44L418.73 58.44L418.73 60.3zM415.43 59.37 a3.3 3.3 0 1 0 6.6 0 a3.3 3.3 0 1 0 -6.6 0zM437.02 46.62L437.73 44.89L427.75 40.76L427.04 42.48zM424.09 41.62 a3.3 3.3 0 1 0 6.6 0 a3.3 3.3 0 1 0 -6.6 0zM444.43 34.87L445.74 33.55L439.19 27L437.87 28.31zM435.23 27.66 a3.3 3.3 0 1 0 6.6 0 a3.3 3.3 0 1 0 -6.6 0zM455.77 26.85L457.49 26.14L451.32 11.25L449.6 11.96zM447.16 11.6 a3.3 3.3 0 1 0 6.6 0 a3.3 3.3 0 1 0 -6.6 0zM469.32 23.79L471.18 23.79L471.18 12.28L469.32 12.28zM466.95 12.28 a3.3 3.3 0 1 0 6.6 0 a3.3 3.3 0 1 0 -6.6 0zM483 26.14L484.73 26.85L489.79 14.63L488.07 13.92zM485.63 14.27 a3.3 3.3 0 1 0 6.6 0 a3.3 3.3 0 1 0 -6.6 0zM494.75 33.55L496.07 34.87L507.21 23.73L505.89 22.41zM503.25 23.07 a3.3 3.3 0 1 0 6.6 0 a3.3 3.3 0 1 0 -6.6 0zM502.77 44.89L503.48 46.62L518.13 40.55L517.42 38.82zM514.48 39.69 a3.3 3.3 0 1 0 6.6 0 a3.3 3.3 0 1 0 -6.6 0zM434.65 59.37 a35.6 35.6 0 1 0 71.2 0 a35.6 35.6 0 1 0 -71.2 0z" fill="rgba(205, 38, 38, 1)"></path><path d="M499.21 38.68 A34.5968 34.5968 0 0 1 473.77 94.8M473.77 94.8 A71.1936 71.1936 0 0 0 499.21 38.68" fill="#a41e1e" fill-rule="nonzero"></path><path d="M470.76 73.14 a7.12 7.12 0 1 0 14.24 0 a7.12 7.12 0 1 0 -14.24 0zM439.58 53.63 a7.12 7.12 0 1 0 14.24 0 a7.12 7.12 0 1 0 -14.24 0zM477.85 54.48 a4.63 4.63 0 1 0 9.26 0 a4.63 4.63 0 1 0 -9.26 0zM443.04 76.75 a7.12 7.12 0 1 0 14.24 0 a7.12 7.12 0 1 0 -14.24 0zM462.02 86.24 a3.56 3.56 0 1 0 7.12 0 a3.56 3.56 0 1 0 -7.12 0zM457.71 27.73 a2.14 2.14 0 1 0 4.28 0 a2.14 2.14 0 1 0 -4.28 0zM461.06 53.3 a2.85 2.85 0 1 0 5.7 0 a2.85 2.85 0 1 0 -5.7 0zM480.4 40.31 a2.14 2.14 0 1 0 4.28 0 a2.14 2.14 0 1 0 -4.28 0zM491.92 70.14 a3.56 3.56 0 1 0 7.12 0 a3.56 3.56 0 1 0 -7.12 0zM497.06 44.67 a2.49 2.49 0 1 0 4.98 0 a2.49 2.49 0 1 0 -4.98 0z" fill="#a41e1e" fill-rule="nonzero"></path><path d="M1361.14 139.86L1361.14 141.73L1377.98 141.73L1377.98 139.86zM1374.68 140.79 a3.3 3.3 0 1 0 6.6 0 a3.3 3.3 0 1 0 -6.6 0zM1358.78 153.55L1358.07 155.27L1368.5 159.59L1369.21 157.87zM1365.56 158.73 a3.3 3.3 0 1 0 6.6 0 a3.3 3.3 0 1 0 -6.6 0zM1351.37 165.3L1350.05 166.62L1354.94 171.5L1356.26 170.18zM1352.3 170.84 a3.3 3.3 0 1 0 6.6 0 a3.3 3.3 0 1 0 -6.6 0zM1340.03 173.31L1338.31 174.03L1344.54 189.07L1346.26 188.35zM1342.1 188.71 a3.3 3.3 0 1 0 6.6 0 a3.3 3.3 0 1 0 -6.6 0zM1326.48 176.38L1324.62 176.38L1324.62 193.47L1326.48 193.47zM1322.25 193.47 a3.3 3.3 0 1 0 6.6 0 a3.3 3.3 0 1 0 -6.6 0zM1312.79 174.03L1311.07 173.31L1307.4 182.17L1309.12 182.89zM1304.96 182.53 a3.3 3.3 0 1 0 6.6 0 a3.3 3.3 0 1 0 -6.6 0zM1301.05 166.62L1299.73 165.3L1292.14 172.88L1293.46 174.2zM1289.5 173.54 a3.3 3.3 0 1 0 6.6 0 a3.3 3.3 0 1 0 -6.6 0zM1293.03 155.27L1292.32 153.55L1286.96 155.77L1287.67 157.49zM1284.02 156.63 a3.3 3.3 0 1 0 6.6 0 a3.3 3.3 0 1 0 -6.6 0zM1289.97 141.73L1289.97 139.86L1273.86 139.86L1273.86 141.73zM1270.56 140.79 a3.3 3.3 0 1 0 6.6 0 a3.3 3.3 0 1 0 -6.6 0zM1292.32 128.04L1293.03 126.32L1277.52 119.89L1276.81 121.61zM1273.86 120.75 a3.3 3.3 0 1 0 6.6 0 a3.3 3.3 0 1 0 -6.6 0zM1299.73 116.29L1301.05 114.97L1292.6 106.52L1291.28 107.84zM1288.64 107.18 a3.3 3.3 0 1 0 6.6 0 a3.3 3.3 0 1 0 -6.6 0zM1311.07 108.28L1312.79 107.56L1310.79 102.73L1309.07 103.44zM1306.63 103.09 a3.3 3.3 0 1 0 6.6 0 a3.3 3.3 0 1 0 -6.6 0zM1324.62 105.21L1326.48 105.21L1326.48 87.76L1324.62 87.76zM1322.25 87.76 a3.3 3.3 0 1 0 6.6 0 a3.3 3.3 0 1 0 -6.6 0zM1338.31 107.56L1340.03 108.28L1346.41 92.87L1344.69 92.16zM1342.25 92.52 a3.3 3.3 0 1 0 6.6 0 a3.3 3.3 0 1 0 -6.6 0zM1350.05 114.97L1351.37 116.29L1356.42 111.24L1355.1 109.92zM1352.46 110.58 a3.3 3.3 0 1 0 6.6 0 a3.3 3.3 0 1 0 -6.6 0zM1358.07 126.32L1358.78 128.04L1371.32 122.84L1370.61 121.12zM1367.66 121.98 a3.3 3.3 0 1 0 6.6 0 a3.3 3.3 0 1 0 -6.6 0zM1289.95 140.79 a35.6 35.6 0 1 0 71.2 0 a35.6 35.6 0 1 0 -71.2 0z" fill="rgba(205, 38, 38, 1)"></path><path d="M1290.43 146.61 A34.5968 34.5968 0 0 1 1338.01 107.45M1338.01 107.45 A71.1936 71.1936 0 0 0 1290.43 146.61" fill="#a41e1e" fill-rule="nonzero"></path><path d="M1320.35 150.76 a7.12 7.12 0 1 0 14.24 0 a7.12 7.12 0 1 0 -14.24 0zM1305.39 136.81 a6.41 6.41 0 1 0 12.82 0 a6.41 6.41 0 1 0 -12.82 0zM1356.18 150.01 a1.78 1.78 0 1 0 3.56 0 a1.78 1.78 0 1 0 -3.56 0zM1336.36 136.98 a5.7 5.7 0 1 0 11.4 0 a5.7 5.7 0 1 0 -11.4 0zM1298.74 153.13 a4.63 4.63 0 1 0 9.26 0 a4.63 4.63 0 1 0 -9.26 0zM1291.01 133.9 a2.85 2.85 0 1 0 5.7 0 a2.85 2.85 0 1 0 -5.7 0zM1306.29 166.55 a2.49 2.49 0 1 0 4.98 0 a2.49 2.49 0 1 0 -4.98 0zM1354.98 134.94 a2.49 2.49 0 1 0 4.98 0 a2.49 2.49 0 1 0 -4.98 0zM1344.14 164.47 a3.2 3.2 0 1 0 6.4 0 a3.2 3.2 0 1 0 -6.4 0zM1343.37 118.71 a4.27 4.27 0 1 0 8.54 0 a4.27 4.27 0 1 0 -8.54 0z" fill="#a41e1e" fill-rule="nonzero"></path></g><defs><mask id="SvgjsMask1003"><rect width="1440" height="560" fill="#ffffff"></rect></mask></defs></svg>