<svg xmlns="http://www.w3.org/2000/svg" version="1.1" xmlns:xlink="http://www.w3.org/1999/xlink" xmlns:svgjs="http://svgjs.dev/svgjs" width="1440" height="560" preserveAspectRatio="none" viewBox="0 0 1440 560"><g mask="url(&quot;#SvgjsMask1004&quot;)" fill="none"><path d="M 0,135 C 57.6,164 172.8,286.2 288,280 C 403.2,273.8 460.8,106.6 576,104 C 691.2,101.4 748.8,266.4 864,267 C 979.2,267.6 1036.8,116 1152,107 C 1267.2,98 1382.4,199 1440,222L1440 560L0 560z" fill="rgba(228, 223, 223, 1)"></path><path d="M 0,542 C 96,505.8 288,360.6 480,361 C 672,361.4 768,555.6 960,544 C 1152,532.4 1344,351.2 1440,303L1440 560L0 560z" fill="rgba(213, 212, 212, 1)"></path></g><defs><mask id="SvgjsMask1004"><rect width="1440" height="560" fill="#ffffff"></rect></mask></defs></svg>