<svg xmlns="http://www.w3.org/2000/svg" version="1.1" xmlns:xlink="http://www.w3.org/1999/xlink" xmlns:svgjs="http://svgjs.dev/svgjs" width="1440" height="560" preserveAspectRatio="none" viewBox="0 0 1440 560"><g mask="url(&quot;#SvgjsMask1009&quot;)" fill="none"><path d="M 0,118 C 57.6,145.8 172.8,264.2 288,257 C 403.2,249.8 460.8,95 576,82 C 691.2,69 748.8,198.4 864,192 C 979.2,185.6 1036.8,56.4 1152,50 C 1267.2,43.6 1382.4,138 1440,160L1440 560L0 560z" fill="rgba(202, 13, 13, 1)"></path><path d="M 0,552 C 96,514.4 288,388.8 480,364 C 672,339.2 768,433.2 960,428 C 1152,422.8 1344,356 1440,338L1440 560L0 560z" fill="rgba(205, 20, 20, 1)"></path></g><defs><mask id="SvgjsMask1009"><rect width="1440" height="560" fill="#ffffff"></rect></mask></defs></svg>